<svg version="1.0" xmlns="http://www.w3.org/2000/svg" width="100" height="100" xml:space="preserve"><path d="M83.323 83.332a129.943 129.943 0 0 1-9.98-49.999h-.02C73.323 20.45 62.874 10 49.99 10S26.657 20.45 26.657 33.333v.031a129.987 129.987 0 0 1-9.98 49.967H37.21L36.657 90h6.875l.996-14.551c1.751.781 3.577 1.217 5.462 1.217 1.882 0 3.704-.455 5.459-1.244L56.448 90h6.875l-.557-6.668h20.557zM49.99 16.667c3.581 0 6.882 1.161 9.603 3.089C58.19 25.617 52.942 30 46.657 30H33.659c1.549-7.597 8.284-13.333 16.331-13.333zM37.771 76.666H26.292c1.999-5.977 3.549-12.068 4.701-18.234 1.917 5 4.41 9.158 7.271 12.271l-.493 5.963zM49.99 70c-7.441 0-15.71-14.045-16.582-33.333h13.249c7.881 0 14.651-4.616 17.903-11.26 1.296 2.37 2.097 5.042 2.097 7.926C66.657 54.32 57.861 70 49.99 70zm11.729.748c2.878-3.119 5.361-7.332 7.285-12.355a135.522 135.522 0 0 0 4.707 18.273H62.214l-.495-5.918z"/></svg>